<svg height="512" viewBox="0 0 512 512" width="512" xmlns="http://www.w3.org/2000/svg"><g id="Flat"><path d="m432 381.27v114.73h-352v-114.73a56.018 56.018 0 0 1 44.27-54.76l66.12-14.16a21.98 21.98 0 0 0 3.16-.93 22.287 22.287 0 0 0 14.45-20.86v-42.56h96v42.56a22.287 22.287 0 0 0 14.45 20.86l1.55.58 67.73 14.51a56.018 56.018 0 0 1 44.27 54.76z" fill="#fdc8a2"/><path d="m304 248v41.43a31.965 31.965 0 0 1 -26.83 14.57h-42.34a31.965 31.965 0 0 1 -26.83-14.57v-41.43z" fill="#fdbf92"/><path d="m422.25 349.69a56.012 56.012 0 0 0 -34.52-23.18l-67.73-14.51-4.36 17.43a61.474 61.474 0 0 1 -119.28 0l-4.36-17.43-67.73 14.51a55.916 55.916 0 0 0 -22.98 10.81 56.742 56.742 0 0 0 -11.02 11.62 55.862 55.862 0 0 0 -10.27 32.33v74.73h64v40h224v-40h64v-74.73a55.857 55.857 0 0 0 -9.75-31.58z" fill="#2f486e"/><g fill="#26395a"><path d="m141.7 378.39-11.4 11.22-40.03-40.67a56.742 56.742 0 0 1 11.02-11.62z"/><path d="m422.25 349.69-40.64 40.01-11.22-11.4 41.04-40.4a56.361 56.361 0 0 1 10.82 11.79z"/><path d="m256 416c-52.342 0-70.412-34.936-71.155-36.422l7.155-3.578 7.13-3.628c.584 1.128 14.796 27.628 56.87 27.628s56.286-26.5 56.87-27.628l14.285 7.206c-.743 1.486-18.813 36.422-71.155 36.422z"/><path d="m136 408h16v48h-16z"/><path d="m360 408h16v48h-16z"/><path d="m138.343 461.657c-16.966-16.967-33.093-56.99-33.771-58.686l14.855-5.944c.155.386 15.585 38.671 30.23 53.316z"/><path d="m373.657 461.657-11.314-11.314c12.173-12.173 25.949-42.613 30.229-53.314l14.856 5.942c-.678 1.696-16.805 41.719-33.771 58.686z"/><path d="m136 456h16v40h-16z"/><path d="m360 456h16v40h-16z"/></g><path d="m277.171 280h-42.342a32 32 0 0 1 -27.973-16.459l-24.816-44.668a48.008 48.008 0 0 1 -6.04-23.311v-75.562a80 80 0 0 1 80-80 80 80 0 0 1 80 80v75.562a48.008 48.008 0 0 1 -6.04 23.311l-24.816 44.668a32 32 0 0 1 -27.973 16.459z" fill="#fdc8a2"/><path d="m214 168a14 14 0 1 1 14-14 14.015 14.015 0 0 1 -14 14z" fill="#91563a"/><path d="m298 168a14 14 0 1 1 14-14 14.015 14.015 0 0 1 -14 14z" fill="#91563a"/><path d="m172 184h4v-56h-4a28 28 0 0 0 -28 28 28 28 0 0 0 28 28z" fill="#fdb683"/><path d="m340 128h-4v56h4a28 28 0 0 0 28-28 28 28 0 0 0 -28-28z" fill="#fdb683"/><path d="m312 72 24 56v-56a24 24 0 0 0 -24-24z" fill="#ef7800"/><path d="m200 72-24 56v-56a24 24 0 0 1 24-24z" fill="#ef7800"/><path d="m312 48v24h-136a48 48 0 0 1 40.54-47.42 48.246 48.246 0 0 1 7.46-.58h43.16c1.49 0 2.97.06 4.43.18a53.927 53.927 0 0 1 40.41 23.82z" fill="#f88400"/><path d="m336 128-20.107 53.618a16 16 0 0 1 -14.981 10.382h-89.824a16 16 0 0 1 -14.981-10.382l-20.107-53.618v67.562a48.008 48.008 0 0 0 6.04 23.311l24.816 44.668a32 32 0 0 0 27.973 16.459h42.342a32 32 0 0 0 27.973-16.459l24.816-44.668a48.008 48.008 0 0 0 6.04-23.311z" fill="#f88400"/><path d="m248 160h16v32h-16z" fill="#fdb683"/><path d="m248.732 232c-3.117 0-6.287-.129-9.467-.423l1.47-15.932c21.955 2.03 44.518-5.335 44.743-5.41l5.052 15.182a146.9 146.9 0 0 1 -41.798 6.583z" fill="#fdb683"/><path d="m208 112h96v16h-96z" fill="#fdb683"/><path d="m296.46 72h-18.04l-24.96-48h13.7c1.49 0 2.97.06 4.43.18z" fill="#ef7800"/><path d="m256.04 72h-17.62l-21.88-47.42a48.246 48.246 0 0 1 7.46-.58h9.88z" fill="#ef7800"/><path d="m216.19 72h-17.81l-13.56-27.74a48.384 48.384 0 0 1 12.02-11.84z" fill="#ef7800"/></g></svg>