<svg height="512" viewBox="0 0 512 512" width="512" xmlns="http://www.w3.org/2000/svg"><g id="Flat"><path d="m381.73 291.71c-6.79 16.59-18.99 30.41-36.63 36.71-52.06 18.59-113.39 21.68-166.33 4.33-13.18-4.33-25.84-11.15-35.1-21.49-25.62-28.6-25.4-73.28-5.84-104.59a93.185 93.185 0 0 0 14.17-49.4v-53.27a79.779 79.779 0 0 1 21.14-54.18 80.393 80.393 0 0 1 19.13-15.27 79.513 79.513 0 0 1 32.06-10.18q3.78-.37 7.67-.37h48a81.851 81.851 0 0 1 8.63.46 80.028 80.028 0 0 1 70.15 65.54 80.641 80.641 0 0 1 1.22 14v63.03a77.924 77.924 0 0 0 14.51 45.29c15.28 21.39 17.73 53.72 7.22 79.39z" fill="#dfdfdd"/><g fill="#d8d8d6"><path d="m257.27 92.11-15.54 3.78-6.54-26.86-10.86-44.66q3.78-.37 7.67-.37h8.7l11.55 47.46 3.84 15.78.9 3.72z"/><path d="m288.63 24.46-11.37 44.5-6.51 25.52-13.76-3.52-1.74-.44.84-3.28v-.01l4.04-15.82 12.1-47.41h7.77a81.851 81.851 0 0 1 8.63.46z"/><path d="m224.26 97.07-15.52 3.86-1.33-5.34-3.79-15.29-3.94-15.88-7.41-29.87a79.167 79.167 0 0 1 14.85-6.6l9.53 38.43z"/><path d="m213.16 89.84-5.75 5.75-5.57 5.57-16.98-16.98-21.42-21.43a80.251 80.251 0 0 1 9.7-12.93l21.42 21.43 9.06 9.05z"/><path d="m185 88v16h-33a79.589 79.589 0 0 1 1.61-16z"/><path d="m320.1 34.76-7.38 30.2-4.19 17.15-1.08 4.4-1.68 6.89-15.54-3.8 5.69-23.3 9.34-38.23a79.4 79.4 0 0 1 14.84 6.69z"/><path d="m349.13 63.72-21.2 21.52-10.73 10.88-9.75-9.61-1.65-1.63 2.73-2.77 9.69-9.82 21.36-21.67a80.012 80.012 0 0 1 9.55 13.1z"/><path d="m360 104v2h-33.5v-16h32.28a80.641 80.641 0 0 1 1.22 14z"/><path d="m169.553 307.492c-.8-.952-19.69-23.63-21.863-51.879-2-26.066 20.4-65.88 21.352-67.561l13.917 7.894c-5.832 10.293-20.668 40.85-19.314 58.439 1.769 23 17.983 42.6 18.147 42.8z"/><path d="m342.447 307.492-12.228-10.318c.154-.184 16.368-19.786 18.137-42.787 1.357-17.632-13.482-48.162-19.314-58.439l13.916-7.9c.954 1.681 23.356 41.5 21.352 67.561-2.173 28.253-21.06 50.931-21.863 51.883z"/></g><path d="m448 401.97v94.03h-384v-94.03a64 64 0 0 1 48.48-62.09l79.52-19.88a28.964 28.964 0 0 0 16-25.89v-54.11h96v54.11a28.964 28.964 0 0 0 16 25.89l79.52 19.88a64 64 0 0 1 48.48 62.09z" fill="#fdc8a2"/><path d="m306.77 306.46-1.93 3.85a32 32 0 0 1 -28.62 17.69h-40.44a32 32 0 0 1 -28.62-17.69l-1.93-3.85a28.95 28.95 0 0 0 2.77-12.35v-54.11h96v54.11a28.95 28.95 0 0 0 2.77 12.35z" fill="#fdbf92"/><path d="m64 496v-94.03a64 64 0 0 1 48.478-62.089l79.522-19.881c23.109 57.774 104.891 57.774 128 0l79.522 19.881a64 64 0 0 1 48.478 62.089v94.03" fill="#e9d6bb"/><path d="m257 401a115.681 115.681 0 0 1 -35.69-5.465l5.365-15.074a101.439 101.439 0 0 0 30.325 4.539h.519c22.79-.12 51.231-11.752 66.145-26.667l10 11.334c-17.886 17.887-49.637 31.333-76.664 31.333z" fill="#deccb2"/><path d="m172 192h12v-56h-12a28 28 0 0 0 -28 28 28 28 0 0 0 28 28z" fill="#fdb683"/><path d="m340 136h-12v56h12a28 28 0 0 0 28-28 28 28 0 0 0 -28-28z" fill="#fdb683"/><path d="m336 96v88q0 7.05-.59 14.04v.01a169.031 169.031 0 0 1 -17.3 61.73l-13.27 26.53a32 32 0 0 1 -28.62 17.69h-40.44a32 32 0 0 1 -28.62-17.69l-13.27-26.53a169.514 169.514 0 0 1 -17.89-75.78v-88l24-32 56 8 56-8z" fill="#fdc8a2"/><path d="m192 496v-176l-79.52 19.88a64 64 0 0 0 -48.48 62.09v94.03" fill="#7a432a"/><path d="m320 496v-176l79.52 19.88a64 64 0 0 1 48.48 62.09v94.03" fill="#7a432a"/><path d="m136 368 32 24-24 16 48 80v-168z" fill="#895036"/><path d="m376 368-32 24 24 16-48 80v-168z" fill="#895036"/><path d="m117.66 386.34-11.32 11.32-31.43-31.43a63.909 63.909 0 0 1 10.56-12.08z" fill="#663723"/><path d="m437.09 366.23-31.43 31.43-11.32-11.32 32.19-32.19a63.909 63.909 0 0 1 10.56 12.08z" fill="#663723"/><path d="m152 480h16v16h-16z" fill="#663723"/><path d="m120 449.715c-9.942-10.076-14.877-27.478-16.1-34.99l-15.8 2.539c.273 1.712 6.61 39.508 31.9 52.107v26.629h16v-72h-16z" fill="#663723"/><path d="m423.9 417.264-15.8-2.539c-1.226 7.512-6.161 24.914-16.1 34.99v-25.715h-16v72h16v-26.629c25.289-12.599 31.625-50.395 31.9-52.107z" fill="#663723"/><path d="m304 232h-96a32 32 0 0 1 32-32h32a32 32 0 0 1 32 32z" fill="#dfdfdd"/><path d="m336 170.54v13.46q0 7.05-.59 14.04v.01l-17.01 22.75-12.8-9.6z" fill="#fcb079"/><path d="m198.66 211.56-13.32 8.88-7.41-10.95a169.4 169.4 0 0 1 -1.93-25.49v-5.92z" fill="#fcb079"/><path d="m240 160h16v40h-16z" fill="#fcb079"/><path d="m200 112h112v16h-112z" fill="#fcb079"/><path d="m240 256h40v16h-40z" fill="#fcb079"/><path d="m214 176a14 14 0 1 1 14-14 14.015 14.015 0 0 1 -14 14z" fill="#91563a"/><path d="m298 176a14 14 0 1 1 14-14 14.015 14.015 0 0 1 -14 14z" fill="#91563a"/></g></svg>