<svg enable-background="new 0 0 64 64" height="512" viewBox="0 0 64 64" width="512" xmlns="http://www.w3.org/2000/svg"><path d="m25.519 34.5s-3.019 0-3.019 2c0 1 1 2 1 2s-3 0-3 3c0 0-6.651 2.128-9 8-2 5-2 13-2 13h47s2-18-12-21c0 0 2-2 0-4 0 0 3.81-5.969-5.595-6.484z" fill="#f0a0d2"/><path d="m37.5 50.9s-1.8 1.2-3 3c0 0 .6 2.4 3 4.2 0 0 1.8-3 3-4.2 0 0-1.8-1.2-3-3z" fill="#f0f0e6"/><path d="m37.5 58.6c-.107 0-.213-.035-.3-.1-2.513-1.885-3.159-4.374-3.185-4.479-.034-.137-.009-.281.069-.398 1.241-1.862 3.062-3.087 3.139-3.139.11-.074.244-.099.375-.074.13.026.244.103.318.213 1.132 1.697 2.844 2.85 2.861 2.861.125.083.206.218.22.367s-.038.297-.144.403c-1.144 1.144-2.907 4.074-2.925 4.104-.073.121-.194.206-.333.233-.031.006-.063.009-.095.009zm-2.451-4.616c.187.544.812 2.067 2.322 3.371.494-.792 1.507-2.362 2.382-3.381-.567-.438-1.544-1.271-2.368-2.37-.545.42-1.552 1.275-2.336 2.38z" fill="#dc8cbe"/><path d="m21.5 50.9s-1.8 1.2-3 3c0 0 .6 2.4 3 4.2 0 0 1.8-3 3-4.2 0 0-1.8-1.2-3-3z" fill="#f0f0e6"/><path d="m21.5 58.6c-.107 0-.213-.035-.3-.1-2.513-1.885-3.159-4.374-3.185-4.479-.034-.137-.009-.281.069-.398 1.241-1.862 3.062-3.087 3.139-3.139.11-.074.244-.099.375-.074.13.026.244.103.318.213 1.132 1.697 2.844 2.85 2.861 2.861.125.083.206.218.22.367s-.038.297-.144.403c-1.144 1.144-2.907 4.074-2.925 4.104-.073.121-.194.206-.333.233-.031.006-.063.009-.095.009zm-2.451-4.616c.187.544.812 2.067 2.322 3.371.494-.792 1.507-2.362 2.382-3.381-.567-.438-1.544-1.271-2.368-2.37-.545.42-1.552 1.275-2.336 2.38z" fill="#dc8cbe"/><path d="m29.5 49.5s-3 2-5 5c0 0 1 4 5 7 0 0 3-5 5-7 0 0-3-2-5-5z" fill="#dc8cbe"/><path d="m29.5 62c-.107 0-.213-.035-.3-.1-4.095-3.071-5.143-7.108-5.185-7.279-.034-.137-.009-.281.069-.398 2.032-3.048 5.013-5.055 5.139-5.139.11-.074.244-.1.375-.074.13.026.244.103.318.213 1.918 2.877 4.833 4.842 4.861 4.861.125.083.206.218.22.367.015.149-.038.297-.144.403-1.933 1.933-4.895 6.854-4.925 6.904-.073.121-.194.206-.333.233-.031.006-.063.009-.095.009zm-4.454-7.415c.255.8 1.356 3.76 4.319 6.175.748-1.212 2.757-4.387 4.377-6.187-.889-.66-2.83-2.23-4.365-4.372-.842.628-2.847 2.238-4.331 4.384z" fill="#dc8cbe"/><path d="m44.5 43.5c10.216 2.189 11.91 12.358 12.081 17.7.141-4.073-.349-16.52-11.214-19.478-.127 1.033-.867 1.778-.867 1.778z" fill="#ffb4dc"/><path d="m21 39.737c-.295.426-.5.99-.5 1.763 0 0-6.651 2.128-9 8-2 5-2 13-2 13h.061c.134-2.697.563-7.559 1.939-11 2.349-5.872 9-8 9-8 0-.776.203-1.348.5-1.774z" fill="#ffb4dc"/><path d="m56.5 60.5h-46.939c-.061 1.222-.061 2-.061 2h47s.144-1.321.081-3.3c-.028.815-.081 1.3-.081 1.3z" fill="#dc8cbe"/><path d="m30.5 46c-6.137 0-9.225-3.018-9.354-3.146-.195-.195-.195-.51 0-.706.194-.195.51-.197.707-.002.028.028 2.949 2.854 8.647 2.854 5.808 0 11.717-2.918 11.776-2.947.248-.122.547-.023.671.224s.023.547-.224.671c-.249.124-6.175 3.052-12.223 3.052z" fill="#dc8cbe"/><path d="m14.664 62.998c-.112 0-.225-.039-.318-.118-.138-.117-1.346-1.268-1.346-5.38 0-2.272.916-3.939 1.723-5.41.685-1.248 1.277-2.326 1.277-3.59 0-.276.224-.5.5-.5s.5.224.5.5c0 1.521-.68 2.76-1.4 4.071-.787 1.432-1.6 2.914-1.6 4.929 0 3.628.996 4.619 1.006 4.629.196.187.213.5.031.701-.1.111-.236.168-.373.168z" fill="#dc8cbe"/><path d="m45.5 63c-.276 0-.5-.224-.5-.5v-13c0-.276.224-.5.5-.5s.5.224.5.5v13c0 .276-.224.5-.5.5z" fill="#dc8cbe"/><path d="m30.535 8.497s-1.994-2.006-5.997-1.019c-3.884.958-7.016 4.978-7.025 7.978-.01 3 1.981 6.006-.025 8s-5.232 5.376-.025 8c1.997 1.006 4.997 1.016 4.997 1.016s15 .048 18 .057 8.003-.975 8.019-5.975-3.981-6.013-3.971-9.013-.217-7.297-6.968-10.022c-4.995-2.016-7.005.978-7.005.978z" fill="#dcdcd2"/><path d="m44.463 18h.08c-.021-.149-.037-.3-.037-.459.01-3-.217-7.297-6.968-10.022-4.994-2.016-7.003.978-7.003.978s-1.994-2.006-5.997-1.019c-3.884.958-7.016 4.978-7.025 7.978-.001.389.032.779.085 1.166.503-2.867 3.406-6.272 6.94-7.144 4.003-.987 5.997 1.019 5.997 1.019s2.01-2.994 7.003-.978c5.664 2.286 6.732 5.676 6.925 8.481z" fill="#f0f0e6"/><path d="m40.503 33.028c-.016 0-.031 0-.046 0l-18-.057c-.127 0-3.142-.022-5.221-1.07-1.821-.917-2.849-2.039-3.055-3.333-.348-2.188 1.718-4.242 2.953-5.468 1.114-1.107.761-2.659.352-4.455-.235-1.03-.478-2.096-.474-3.192.01-3.135 3.18-7.419 7.406-8.461 3.216-.795 5.231.234 6.052.812.812-.824 3.07-2.438 7.254-.749 7.305 2.949 7.29 7.853 7.281 10.487-.004 1.131.659 1.943 1.498 2.972 1.106 1.356 2.483 3.044 2.473 6.041-.013 4.775-4.377 6.473-8.473 6.473zm-13.814-25.326c-.598 0-1.275.074-2.031.261-3.731.92-6.636 4.784-6.645 7.494-.003.983.227 1.992.449 2.967.436 1.911.886 3.888-.622 5.386-1.421 1.413-2.917 3.049-2.67 4.603.152.958.999 1.832 2.517 2.597 1.87.942 4.745.962 4.773.962l18 .057h.037c1.801 0 7.465-.408 7.481-5.476.008-2.639-1.139-4.045-2.248-5.406-.889-1.089-1.728-2.119-1.723-3.607.008-2.566.021-6.862-6.655-9.557-4.567-1.843-6.383.765-6.401.792-.083.124-.218.205-.367.219-.151.012-.295-.038-.4-.143-.061-.059-1.204-1.149-3.495-1.149z" fill="#785ae6"/><path d="m28.445 34.5v4h10.055v-6.76z" fill="#ffb4be"/><path d="m30.5 41c-7.138 0-7.5-2.083-7.5-2.5 0-.276.224-.5.5-.5.264 0 .48.205.499.464.024.08.583 1.536 6.501 1.536.276 0 .5.224.5.5s-.224.5-.5.5zm-6.5-2.5h.01z" fill="#dc8cbe"/><path d="m56.5 63h-47c-.276 0-.5-.224-.5-.5 0-.331.023-8.154 2.036-13.186 2.131-5.327 7.56-7.647 8.978-8.173.145-1.894 1.434-2.729 2.549-3.017-.284-.433-.563-1.013-.563-1.624 0-1.942 2.22-2.481 3.453-2.5l12.947-3.37c.268-.067.54.09.61.358.069.267-.091.541-.358.61l-13.007 3.386c-.041.011-.083.016-.125.016-.026 0-2.52.025-2.52 1.5 0 .645.617 1.408.854 1.647.142.143.184.357.107.543s-.258.308-.459.31c-.256.002-2.502.088-2.502 2.5 0 .217-.141.41-.347.476-.064.021-6.458 2.133-8.688 7.709-1.658 4.144-1.917 10.499-1.958 12.315h46.031c.179-2.753.539-17.4-11.644-20.011-.179-.038-.323-.171-.375-.347s-.003-.366.126-.495c.166-.168 1.588-1.705 0-3.293-.166-.166-.193-.424-.068-.622.076-.121 1.837-2.968-.605-4.567-.231-.151-.295-.461-.145-.692.152-.23.462-.295.692-.145 2.412 1.58 1.851 4.185 1.096 5.605 1.162 1.386.823 2.826.251 3.76 13.447 3.537 11.649 21.181 11.629 21.362-.026.254-.24.445-.495.445z" fill="#785ae6"/><path d="m39.5 28.5h2c1.657 0 3-1.343 3-3v-1c0-1.657-1.343-3-3-3h-1.811c-.811 0-3.189-1-3.189-2s-1-3-4-4-3-3-3-3c-1 2-3 2-4 2s-2 0-2 0c-2 1-3 3-3 5s1 5 1 6-1 1-1 4 3 5 7 5 6 0 6 0c4 0 6-4 6-6z" fill="#ffc8d2"/><path d="m30.5 18c-.04 0-.081-.005-.122-.015-3.734-.933-5.64-.045-5.658-.036-.247.119-.546.018-.668-.229-.121-.247-.022-.544.224-.667.089-.044 2.213-1.071 6.345-.038.268.067.431.338.364.606-.057.228-.26.379-.485.379z" fill="#ffb4be"/><path d="m39 21.369c-1.023-.297-2.5-1.079-2.5-1.869 0-1-1-3-4-4s-3-3-3-3c-1 2-3 2-4 2s-2 0-2 0c-2 1-3 3-3 5 0 .169.016.354.029.536.143-1.839 1.126-3.613 2.971-4.536h2s3 0 4-2c0 0 0 2 3 3s4 3 4 4c0 .79 1.477 1.572 2.5 1.869z" fill="#ffb4be"/><path d="m21.5 13.997c-.002 0-.004 0-.006 0-.274-.004-.494-.224-.494-.497 0-.096.038-2.373 3.342-3.474 3.257-1.085 5.421 1.03 5.512 1.121.195.195.195.51 0 .705-.193.195-.51.197-.706.003-.074-.073-1.834-1.766-4.49-.881-2.585.862-2.656 2.464-2.658 2.532-.007.272-.229.491-.5.491z" fill="#f0f0e6"/><g fill="#785ae6"><path d="m31.5 25c-.276 0-.5-.224-.5-.5v-2c0-.276.224-.5.5-.5s.5.224.5.5v2c0 .276-.224.5-.5.5z"/><path d="m23.5 25c-.276 0-.5-.224-.5-.5v-2c0-.276.224-.5.5-.5s.5.224.5.5v2c0 .276-.224.5-.5.5z"/><path d="m38.5 39c-.276 0-.5-.224-.5-.5v-6.76c0-.276.224-.5.5-.5s.5.224.5.5v6.76c0 .276-.224.5-.5.5z"/><path d="m28.444 39c-.276 0-.5-.224-.5-.5v-4c0-.276.224-.5.5-.5s.5.224.5.5v4c0 .276-.223.5-.5.5z"/><path d="m31.5 24.041c-.125 0-.25-.046-.346-.14-.199-.191-.206-.508-.014-.707l1-1.041c.192-.2.508-.206.707-.014.199.191.206.508.014.707l-1 1.041c-.099.103-.23.154-.361.154z"/><path d="m23.5 24.041c-.131 0-.262-.051-.36-.154l-1-1.041c-.191-.199-.185-.516.014-.707.198-.191.516-.186.707.014l1 1.041c.191.199.185.516-.014.707-.097.094-.222.14-.347.14z"/><path d="m34.5 22c-.209 0-.404-.132-.474-.342-.35-1.05-1.013-1.651-1.972-1.788-.738-.107-1.39.103-1.396.104-.265.089-.545-.055-.632-.316-.087-.262.054-.545.316-.632.035-.013.873-.286 1.854-.146.938.134 2.181.67 2.778 2.462.087.262-.054.545-.316.632-.053.018-.106.026-.158.026z"/><path d="m21.5 21.326c-.087 0-.176-.023-.256-.071-.237-.142-.314-.449-.173-.686 1.163-1.947 3.418-1.58 3.515-1.562.272.047.454.307.407.579-.047.271-.301.453-.577.407-.079-.012-1.683-.257-2.486 1.089-.095.157-.26.244-.43.244z"/></g><path d="m26.5 34.454s-1.111 1.046 1.945 2.046 10.055 0 12.055-3v6h-14z" fill="#f0a0d2"/><path d="m31.336 37.375c-1.171 0-2.234-.133-3.047-.399-1.494-.489-2.298-1.076-2.458-1.794-.141-.63.278-1.046.326-1.091.201-.189.517-.18.707.021.186.198.18.507-.012.698-.017.02-.064.081-.043.161.022.085.214.538 1.792 1.055 2.896.949 9.667-.078 11.484-2.802.152-.23.462-.292.693-.139.23.153.292.463.139.693-1.603 2.402-6.075 3.597-9.581 3.597z" fill="#785ae6"/><path d="m41.5 21c-.075 0-.151-.017-.223-.053-1.967-.983-3.277-2.115-3.277-4.447 0-1.968-1.043-3.713-2.724-4.553-1.756-.879-3.535-.009-3.553 0-.247.124-.547.024-.671-.224-.124-.247-.023-.547.224-.671.091-.045 2.25-1.098 4.447 0 2.022 1.011 3.277 3.098 3.277 5.448 0 1.638.687 2.535 2.724 3.553.247.124.347.424.224.671-.089.175-.265.276-.448.276z" fill="#f0f0e6"/><g fill="#785ae6"><path d="m32 27c-2.206 0-4-1.794-4-4 0-.276.224-.5.5-.5s.5.224.5.5c0 1.654 1.346 3 3 3s3-1.346 3-3c0-.276.224-.5.5-.5h2.582c.276 0 .5.224.5.5s-.224.5-.5.5h-2.113c-.247 1.97-1.933 3.5-3.969 3.5z"/><path d="m23 27c-2.206 0-4-1.794-4-4 0-.276.224-.5.5-.5s.5.224.5.5c0 1.654 1.346 3 3 3 .382 0 .755-.071 1.107-.211.257-.102.547.023.649.28.102.256-.023.547-.28.649-.47.187-.967.282-1.476.282z"/><path d="m26.5 28c-1.739 0-2.892-1.292-2.892-2.146 0-.243.088-.461.249-.616.112-.109.315-.238.643-.238.289 0 1.034-1.186 1.526-2.658.087-.262.371-.405.632-.316.262.087.403.37.316.632-.321.964-1.173 3.155-2.327 3.331.042.094.123.223.258.363.188.195.719.648 1.595.648.276 0 .5.224.5.5s-.224.5-.5.5z"/><path d="m27.722 31.028c-1.884 0-2.723-.824-2.775-.877-.193-.197-.189-.514.008-.707.196-.191.508-.19.702.003.032.03 1.621 1.462 5.644-.294.256-.111.548.005.658.258.111.253-.005.548-.258.658-1.655.722-2.968.959-3.979.959z"/><path d="m32.5 30.301c-.032 0-.064-.003-.096-.009-1.962-.383-2.454-1.644-2.474-1.698-.097-.259.035-.547.293-.643.256-.095.541.032.641.286.02.046.362.806 1.731 1.073.271.053.448.315.395.586-.046.24-.255.405-.49.405z"/><path d="m31.5 35h-4c-4.416 0-7.5-2.262-7.5-5.5 0-2.036.441-2.8.763-3.358.164-.284.237-.419.237-.642 0-.358-.175-1.131-.36-1.948-.285-1.259-.64-2.824-.64-4.052 0-2.35 1.255-4.437 3.276-5.447.247-.124.546-.024.671.224.124.247.023.547-.224.671-1.68.839-2.723 2.584-2.723 4.552 0 1.116.341 2.621.615 3.831.215.949.385 1.699.385 2.169 0 .5-.188.827-.371 1.142-.28.486-.629 1.09-.629 2.858 0 2.649 2.673 4.5 6.5 4.5h4c.276 0 .5.224.5.5s-.224.5-.5.5z"/><path d="m38.41 32.182c-.094 0-.188-.026-.272-.081-.231-.151-.297-.46-.146-.692.612-.94 1.008-2.082 1.008-2.909 0-.276.224-.5.5-.5h2c1.378 0 2.5-1.122 2.5-2.5v-1c0-1.378-1.122-2.5-2.5-2.5h-1.811c-.276 0-.5-.224-.5-.5s.224-.5.5-.5h1.811c1.93 0 3.5 1.57 3.5 3.5v1c0 1.93-1.57 3.5-3.5 3.5h-1.532c-.115.932-.529 2.02-1.138 2.955-.096.147-.256.227-.42.227z"/></g><path d="m41.5 17.5-6 2v-2l6-2z" fill="#96bef0"/><path d="m35.5 20c-.104 0-.206-.032-.292-.094-.131-.094-.208-.245-.208-.406v-2c0-.215.138-.406.342-.474l6-2c.151-.052.32-.026.451.068.13.094.207.245.207.406v2c0 .215-.138.406-.342.474l-6 2c-.052.018-.105.026-.158.026zm.5-2.14v.946l5-1.667v-.946zm5.5-.36h.01z" fill="#aad2ff"/><path d="m34.5 41c-.276 0-.499-.223-.5-.499s.223-.5.499-.501c.029 0 2.896-.031 5.724-1.916.23-.153.54-.091.693.139s.091.54-.139.693c-3.09 2.06-6.148 2.084-6.277 2.084z" fill="#dc8cbe"/></svg>