<svg height="512" viewBox="0 0 512 512" width="512" xmlns="http://www.w3.org/2000/svg"><g id="Filled_outline" data-name="Filled outline"><path d="m376 238.41a88.84 88.84 0 0 1 -31.95 68.22l-16.05 13.37h-144l-16.05-13.37a88.789 88.789 0 0 1 -27.39-96.3l6.88-20.66a88.7 88.7 0 0 0 4.56-28.08v-33.59a104.012 104.012 0 0 1 96-103.7q3.96-.3 8-.3t8 .3a104.011 104.011 0 0 1 96 103.7v33.59a88.7 88.7 0 0 0 4.56 28.08l6.88 20.66a88.857 88.857 0 0 1 4.56 28.08z" fill="#7a432a"/><path d="m128 496v-128a48 48 0 0 1 48-48h36a12 12 0 0 0 12-12v-68h64v68a12 12 0 0 0 12 12h36a48 48 0 0 1 48 48v128" fill="#fdc8a2"/><path d="m288 240v56a80.1 80.1 0 0 1 -64 0v-56z" fill="#fdbf92"/><path d="m128 496v-128a48 48 0 0 1 48-48h32l22.588 64h50.824l22.588-64h32a48 48 0 0 1 48 48v128" fill="#ef9191"/><path d="m360 144h8a0 0 0 0 1 0 0v48a0 0 0 0 1 0 0h-8a24 24 0 0 1 -24-24 24 24 0 0 1 24-24z" fill="#fcb079" transform="matrix(-1 0 0 -1 704 336)"/><path d="m128 496v-128a48 48 0 0 1 48-48h32l48 136 48-136h32a48 48 0 0 1 48 48v128" fill="#2f486e"/><path d="m208 320h-16l-24 32 32 24-16 16 72 88v-24z" fill="#415e89"/><path d="m304 320h16l24 32-32 24 16 16-72 88v-24z" fill="#415e89"/><path d="m286.311 272.845a67.785 67.785 0 0 1 -30.311 7.155 67.785 67.785 0 0 1 -30.311-7.155 89.889 89.889 0 0 1 -49.689-80.399 44.105 44.105 0 0 1 20.73-37.4l16.3-10.189a78.794 78.794 0 0 0 34.68-47.707l8.29-33.15c32 64 48 64 80 80v48.446a89.889 89.889 0 0 1 -49.689 80.399z" fill="#fdc8a2"/><path d="m348.434 313.39.74-.616c25.084-20.89 38.868-57.549 33.573-89.873-1.952-11.92-11.139-37.459-11.392-38.312a31.925 31.925 0 0 0 -3.355-37.721v-18.868a112.127 112.127 0 0 0 -112-112h-.355a111.3 111.3 0 0 0 -78.845 32.8l11.314 11.314a95.307 95.307 0 0 1 59.686-27.766l.443 29.714c-7.3 29.2-9.239 55.438-39.446 76.008-19.808 13.489-38.84 25.933-45.355 50.364-9.2 34.513-6.239 84.165 32.387 110.509l9.016-13.219c-19.655-13.4-27.921-34.665-29.5-55.907a97.239 97.239 0 0 0 40.655 46.858v31.325a4 4 0 0 1 -4 4h-25.1l-13.821-11.514a82.352 82.352 0 0 1 -29.079-62.076c0-16.019 6.039-31.226 11.029-46.208 6.828-20.502 4.971-42.902 4.971-64.202a95.279 95.279 0 0 1 18.362-56.481l-12.929-9.419a111.166 111.166 0 0 0 -21.433 65.9c0 19.489 2.111 40.377-4.15 59.143-5.616 16.862-11.85 33.239-11.85 51.267 0 27.722 13.355 56.457 34.83 74.366l.754.629a56.084 56.084 0 0 0 -43.584 54.595v128h16v-128a40.045 40.045 0 0 1 40-40l-14.4 19.2a8 8 0 0 0 1.6 11.2l24.62 18.466-9.477 9.477a8 8 0 0 0 -.534 10.723l70.191 85.789v13.145h16v-13.145l70.191-85.789a8 8 0 0 0 -.534-10.723l-9.477-9.477 24.62-18.466a8 8 0 0 0 1.6-11.2l-14.4-19.2a39.9 39.9 0 0 1 30.86 14.548l12.34-10.188a55.856 55.856 0 0 0 -30.766-18.97zm-9.5-12.907-13.829 11.517h-25.105a4 4 0 0 1 -4-4v-31.325a97.209 97.209 0 0 0 41.652-49.382c1.931 12.139 1.447 22.491-1.469 30.214-3.116 8.248-10.967 18.877-21 28.431l11.033 11.588c11.865-11.3 20.955-23.823 24.937-34.366 8.258-21.869.539-50.126-4.02-63.315a31.741 31.741 0 0 0 11.289-3.292l5.431 16.307a80.791 80.791 0 0 1 -24.921 87.623zm-82.934 131.48-14.1-39.963h28.2zm19.751-55.963h-39.5l-17.38-49.241a20.014 20.014 0 0 0 13.129-18.759v-23.912a75.576 75.576 0 0 0 48 0v23.912a20.014 20.014 0 0 0 13.131 18.759zm84.249-208a16.019 16.019 0 0 1 -16 16v-32a16.019 16.019 0 0 1 16 16zm-8-40v9.013a31.94 31.94 0 0 0 -8-1.013h-6.137c-3.645-1.792-7.057-3.384-10.356-4.918-23.251-10.807-37.414-17.393-63.259-68.488l-.448-30.276a96.127 96.127 0 0 1 88.2 95.682zm-168 64.446c0-11.575 5.538-21.537 14.323-28.777q1.086-.821 2.241-1.569a14 14 0 1 0 15.789-9.886l.92-.575a86.376 86.376 0 0 0 38.2-52.55l3.215-12.863c22.067 39.246 37.4 47.9 62.074 59.365 2.35 1.093 4.751 2.209 7.237 3.4v43.454a81.441 81.441 0 0 1 -45.268 73.243 59.771 59.771 0 0 1 -53.464 0 81.441 81.441 0 0 1 -45.267-73.242zm23.979 182.987a8 8 0 0 0 -3.179-5.833l-25.6-19.2 16.8-22.4h6.34l45.66 129.37v.219l-53.224-65.051 10.881-10.881a7.994 7.994 0 0 0 2.322-6.224zm99.221-5.833a8 8 0 0 0 -.857 12.057l10.881 10.881-53.224 65.051v-.219l45.66-129.37h6.34l16.8 22.4z"/><path d="m389.139 350.288-15.18 5.058a39.964 39.964 0 0 1 2.041 12.654v128h16v-128a55.948 55.948 0 0 0 -2.861-17.712z"/><path d="m175.831 422.675-13.312-8.875c-15.791 23.687-13.293 56.331 5.481 77.376v4.824h16v-8a8 8 0 0 0 -2.343-5.657c-15.344-15.343-17.902-41.552-5.826-59.668z"/><path d="m336.169 422.675c12.076 18.116 9.518 44.325-5.826 59.668a8 8 0 0 0 -2.343 5.657v8h16v-4.824c18.774-21.045 21.272-53.689 5.481-77.376z"/><path d="m216 480h16v16h-16z"/><path d="m317.887 110.2 15.56-3.725c-12.318-51.448-57.239-63.411-59.147-63.895l-3.969 15.5c1.53.4 37.544 10.303 47.556 52.12z"/><path d="m199.212 102.854a121.179 121.179 0 0 1 -18.2 12.93c-4.493 2.633-8.041 4.714-11.17 10.972l14.31 7.155c.978-1.955 1.116-2.076 4.951-4.324a135.591 135.591 0 0 0 20.348-14.441c22.8-19 21.6-49.887 21.537-51.193l-15.983.734c.013.242.795 24.343-15.793 38.167z"/><path d="m298 180a14 14 0 1 0 -14-14 14.015 14.015 0 0 0 14 14z"/><path d="m283.578 223.155-7.156-14.31a68.118 68.118 0 0 1 -30.311 7.155h-6.111v16h6.111a84.209 84.209 0 0 0 37.467-8.845z"/><path d="m239.351 180h25.298v16.001h-25.298z" transform="matrix(.316 -.949 .949 .316 -6.038 367.622)"/></g></svg>